<svg xmlns="http://www.w3.org/2000/svg" fill="none" viewBox="0 0 175 80"><g filter="url(#a)"><path fill="#FFF8BA" fill-rule="evenodd" d="M40.014 16.959c-12.736 0-23.062 10.325-23.062 23.062 0 12.737 10.326 23.062 23.062 23.062 12.737 0 23.063-10.325 23.063-23.062 0-12.737-10.326-23.062-23.063-23.062ZM15 40.02c0-13.815 11.2-25.015 25.014-25.015 13.816 0 25.015 11.2 25.015 25.015 0 13.815-11.2 25.014-25.014 25.014C26.198 65.035 15 53.835 15 40.021Zm17.847-17.205h5.065l-1.838 5.31 1.672-.657a.976.976 0 0 1 1.206 1.39l-6.247 11.033-1.798-.715 1.481-6.01-1.552 1.037a.976.976 0 0 1-1.467-1.125l3.478-10.263Zm1.4 1.952-2.11 6.227c1.197-.652 2.65.406 2.36 1.77l1.411-2.493c-1.213.295-2.338-.88-1.91-2.116l1.172-3.388h-.923ZM25.86 43.265l3.866-.397-.2-1.942-8.363.858.2 1.942 2.535-.26c-.269 8.928 7.413 15.313 15.833 15.313 8.544 0 15.498-6.806 16.044-15.367l3.058.314.2-1.942-8.364-.858-.2 1.942 3.362.345c-.447 7.615-6.61 13.613-14.1 13.613-7.608 0-14.246-5.778-13.871-13.561Zm25.069-20.45h-5.065L42.385 33.08a.976.976 0 0 0 1.467 1.125l1.552-1.037-1.48 6.01 1.797.715 6.247-11.034a.976.976 0 0 0-1.206-1.39l-1.672.658 1.838-5.31Zm-5.775 8.18 2.11-6.227h.923l-1.172 3.387c-.428 1.238.697 2.412 1.91 2.117l-1.411 2.492c.29-1.363-1.163-2.42-2.36-1.77Z" clip-rule="evenodd"></path></g><path fill="#fff" d="M88.898 21.465h-1.717L82.509 36.67l-4.622-15.203H76.12L73.67 38.31h2.046l1.187-15.683 4.722 15.683h1.642l4.596-15.683L89.15 38.31h2.197l-2.45-16.845Zm6.108 3.056v-1.54H93.49v1.54h1.516Zm-1.516 1.642V38.31h1.516V26.163H93.49Zm5.881 12.147V21.465h-1.515V38.31h1.515Zm5.098-3.056c1.97-1.97 4.748-2.399 6.187-.96.96.96 1.086 2.526.505 4.016h1.667c0-3.333-2.374-6.036-5.304-6.036-.176 0-.353 0-.53.026l5.834-6.087h-1.541l-6.945 7.274a4.452 4.452 0 0 0-.606.58V21.466h-1.515V38.31h.53c.202-1.035.783-2.121 1.718-3.056Zm31.116-13.789h-1.718l-4.672 15.204-4.621-15.203h-1.768l-2.45 16.844h2.046l1.187-15.683 4.722 15.683h1.642l4.596-15.683 1.288 15.683h2.197l-2.449-16.845Zm9.314 4.723c-2.929 0-5.303 2.728-5.303 6.061 0 3.359 2.374 6.061 5.303 6.061 2.93 0 5.304-2.702 5.304-6.06 0-3.334-2.374-6.062-5.304-6.062Zm-2.626 8.688c-1.995-1.995-2.425-4.773-.96-6.213 1.44-1.44 4.218-1.01 6.187.96 1.996 1.97 2.425 4.747.96 6.212-1.439 1.44-4.217 1.01-6.187-.96Zm14.933-8.688c-2.93 0-5.304 2.728-5.304 6.061 0 3.359 2.374 6.061 5.304 6.061 2.929 0 5.303-2.702 5.303-6.06 0-3.334-2.374-6.062-5.303-6.062Zm-2.627 8.688c-1.995-1.995-2.424-4.773-.959-6.213 1.439-1.44 4.217-1.01 6.187.96 1.995 1.97 2.425 4.747.96 6.212-1.44 1.44-4.218 1.01-6.188-.96Zm19.479-6.137c-.656-1.288-1.894-2.273-3.409-2.475-.177-.025-.379-.025-.556-.025-1.49 0-2.828.681-3.788 1.818v-1.844h-1.515V38.31h1.515v-8.99c.076-.152.202-.329.354-.48.53-.53 1.262-.808 2.096-.808 1.843 0 4.268 1.187 4.268 3.586v6.692h1.54v-7.728a3.67 3.67 0 0 0-.505-1.843ZM80.463 50.252c-.277-.101-.555-.202-.833-.329h-.05c-2.778-1.212-3.864-2.348-3.864-4.015 0-1.414 1.49-2.273 3.308-2.273 3.737 0 4.975 2.601 5.354 3.915h1.843c-.227-1.162-1.389-5-7.02-5-1.692 0-3.006.454-3.89 1.338-1.11 1.161-1.187 2.651-1.161 3.08.05 2.324 2.273 3.385 5.152 4.521.1.026.227.076.328.101.076.05.126.076.227.101 3.384 1.44 4.47 2.475 4.52 4.268.026 1.768-1.16 2.45-3.51 2.526h-.176c-3.384 0-4.597-2.627-5.026-3.713H73.67c.631 2.273 2.753 4.647 6.844 4.647h.303c5.076-.151 5.253-3.763 5.228-4.495-.05-2.55-2.854-3.637-5.582-4.672Zm9.94-1.288h3.788v-1.692h-3.788V45.63h-1.515v1.642H87.6v1.692h1.288v4.369c0 3.333 2.374 6.036 5.303 6.036v-1.642h-1.616a2.156 2.156 0 0 1-2.172-2.172v-6.591Zm6.103 7.879h.025c.657 1.288 1.869 2.273 3.384 2.475.177.025.379.025.581.025 1.465 0 2.803-.682 3.788-1.818v1.844h1.515V47.272h-1.54v8.99a1.491 1.491 0 0 1-.328.48c-.556.53-1.288.808-2.096.808-1.87 0-4.294-1.187-4.294-3.586v-6.692h-1.515V55c0 .631.152 1.288.48 1.843Zm20.637-14.319v6.54c-.959-1.11-2.298-1.792-3.762-1.792-2.93 0-5.304 2.702-5.304 6.06 0 3.334 2.374 6.037 5.304 6.037 1.464 0 2.803-.682 3.762-1.794v1.794h1.541V42.524h-1.541Zm-.202 14.37c-1.439 1.44-4.217 1.01-6.187-.96-1.995-1.995-2.424-4.773-.96-6.213 1.44-1.44 4.218-1.01 6.188.96 1.995 1.97 2.424 4.748.959 6.213Zm6.106-11.314v-1.54h-1.515v1.54h1.515Zm-1.515 1.641V59.37h1.515V47.22h-1.515Zm9.088.025c-2.93 0-5.304 2.728-5.304 6.061 0 3.36 2.374 6.062 5.304 6.062 2.929 0 5.303-2.703 5.303-6.062 0-3.333-2.374-6.06-5.303-6.06Zm-2.627 8.688c-1.995-1.995-2.424-4.773-.959-6.213 1.439-1.44 4.217-1.01 6.187.96 1.995 1.97 2.424 4.748.96 6.213-1.44 1.44-4.218 1.01-6.188-.96Z"></path><path fill="#FFF8BA" fill-rule="evenodd" d="M40.014 20.566c-10.744 0-19.455 8.71-19.455 19.455 0 10.745 8.71 19.455 19.455 19.455 10.745 0 19.456-8.71 19.456-19.455 0-10.745-8.71-19.456-19.456-19.456ZM18.912 40.02c0-11.655 9.448-21.102 21.102-21.102 11.655 0 21.103 9.447 21.103 21.102 0 11.654-9.448 21.102-21.102 21.102-11.655 0-21.103-9.448-21.103-21.102ZM33.97 25.507h4.272l-1.55 4.48 1.41-.555a.823.823 0 0 1 1.018 1.172l-5.27 9.308-1.517-.603 1.25-5.07-1.31.875a.823.823 0 0 1-1.238-.95l2.935-8.657Zm1.18 1.647-1.78 5.253c1.01-.55 2.236.342 1.991 1.492l1.19-2.102c-1.023.248-1.972-.742-1.61-1.786l.988-2.857h-.778Zm-7.076 15.603 3.261-.334-.168-1.639-7.055.724.168 1.639 2.139-.22c-.227 7.532 6.254 12.918 13.356 12.918 7.208 0 13.075-5.741 13.535-12.963l2.58.265.168-1.639-7.055-.724-.168 1.639 2.836.29c-.377 6.425-5.576 11.485-11.896 11.485-6.417 0-12.018-4.874-11.7-11.44Zm21.148-17.25H44.95l-2.935 8.658a.823.823 0 0 0 1.238.949l1.31-.875-1.25 5.07 1.516.603 5.27-9.308a.823.823 0 0 0-1.017-1.172l-1.41.554 1.55-4.48Zm-4.872 6.9 1.78-5.253h.78l-.99 2.857c-.36 1.044.588 2.034 1.612 1.786l-1.19 2.102c.245-1.15-.982-2.042-1.992-1.492Z" clip-rule="evenodd"></path><defs><filter id="a" width="78.578" height="78.577" x=".726" y=".732" color-interpolation-filters="sRGB" filterUnits="userSpaceOnUse"><feFlood flood-opacity="0" result="BackgroundImageFix"></feFlood><feBlend in="SourceGraphic" in2="BackgroundImageFix" result="shape"></feBlend><feGaussianBlur result="effect1_foregroundBlur_34_26228" stdDeviation="7.137"></feGaussianBlur></filter></defs></svg>
