<svg xmlns="http://www.w3.org/2000/svg" fill="none" viewBox="0 0 80 80"><g filter="url(#a)"><path fill="#FFF8BA" fill-rule="evenodd" d="M40.014 16.959c-12.736 0-23.062 10.325-23.062 23.062 0 12.737 10.326 23.062 23.062 23.062 12.737 0 23.063-10.325 23.063-23.062 0-12.737-10.326-23.062-23.063-23.062ZM15 40.02c0-13.815 11.2-25.015 25.014-25.015 13.816 0 25.015 11.2 25.015 25.015 0 13.815-11.2 25.014-25.014 25.014C26.198 65.035 15 53.835 15 40.021Zm17.847-17.205h5.065l-1.838 5.31 1.672-.657a.976.976 0 0 1 1.206 1.39l-6.247 11.033-1.798-.715 1.481-6.01-1.552 1.037a.976.976 0 0 1-1.467-1.125l3.478-10.263Zm1.4 1.952-2.11 6.227c1.197-.652 2.65.406 2.36 1.77l1.411-2.493c-1.213.295-2.338-.88-1.91-2.116l1.172-3.388h-.923ZM25.86 43.265l3.866-.397-.2-1.942-8.363.858.2 1.942 2.535-.26c-.269 8.928 7.413 15.313 15.833 15.313 8.544 0 15.498-6.806 16.044-15.367l3.058.314.2-1.942-8.364-.858-.2 1.942 3.362.345c-.447 7.615-6.61 13.613-14.1 13.613-7.608 0-14.246-5.778-13.871-13.561Zm25.069-20.45h-5.065L42.385 33.08a.976.976 0 0 0 1.467 1.125l1.552-1.037-1.48 6.01 1.797.715 6.247-11.034a.976.976 0 0 0-1.206-1.39l-1.672.658 1.838-5.31Zm-5.775 8.18 2.11-6.227h.923l-1.172 3.387c-.428 1.238.697 2.412 1.91 2.117l-1.411 2.492c.29-1.363-1.163-2.42-2.36-1.77Z" clip-rule="evenodd"></path></g><path fill="#FFF8BA" fill-rule="evenodd" d="M40.014 20.566c-10.744 0-19.455 8.71-19.455 19.455 0 10.745 8.71 19.455 19.455 19.455 10.745 0 19.456-8.71 19.456-19.455 0-10.745-8.71-19.456-19.456-19.456ZM18.912 40.02c0-11.655 9.448-21.102 21.102-21.102 11.655 0 21.103 9.447 21.103 21.102 0 11.654-9.448 21.102-21.102 21.102-11.655 0-21.103-9.448-21.103-21.102ZM33.97 25.507h4.272l-1.55 4.48 1.41-.555a.823.823 0 0 1 1.018 1.172l-5.27 9.308-1.517-.603 1.25-5.07-1.31.875a.823.823 0 0 1-1.238-.95l2.935-8.657Zm1.18 1.647-1.78 5.253c1.01-.55 2.236.342 1.991 1.492l1.19-2.102c-1.023.248-1.972-.742-1.61-1.786l.988-2.857h-.778Zm-7.076 15.603 3.261-.334-.168-1.639-7.055.724.168 1.639 2.139-.22c-.227 7.532 6.254 12.918 13.356 12.918 7.208 0 13.075-5.741 13.535-12.963l2.58.265.168-1.639-7.055-.724-.168 1.639 2.836.29c-.377 6.425-5.576 11.485-11.896 11.485-6.417 0-12.018-4.874-11.7-11.44Zm21.148-17.25H44.95l-2.935 8.658a.823.823 0 0 0 1.238.949l1.31-.875-1.25 5.07 1.516.603 5.27-9.308a.823.823 0 0 0-1.017-1.172l-1.41.554 1.55-4.48Zm-4.872 6.9 1.78-5.253h.78l-.99 2.857c-.36 1.044.588 2.034 1.612 1.786l-1.19 2.102c.245-1.15-.982-2.042-1.992-1.492Z" clip-rule="evenodd"></path><defs><filter id="a" width="78.578" height="78.577" x=".726" y=".732" color-interpolation-filters="sRGB" filterUnits="userSpaceOnUse"><feFlood flood-opacity="0" result="BackgroundImageFix"></feFlood><feBlend in="SourceGraphic" in2="BackgroundImageFix" result="shape"></feBlend><feGaussianBlur result="effect1_foregroundBlur_34_26228" stdDeviation="7.137"></feGaussianBlur></filter></defs></svg>
